<svg
        width="86"
        height="38"
        viewBox="0 0 86 38"
        fill="none"
        xmlns="http://www.w3.org/2000/svg"
      >
        <g clip-path="url(#clip0_110_3)">
          <mask
            id="mask0_110_3"
            maskUnits="userSpaceOnUse"
            x="0"
            y="0"
            width="86"
            height="38"
          >
            <path d="M86 0H0V38H86V0Z" fill="white" />
          </mask>
          <g mask="url(#mask0_110_3)">
            <path
              fill-rule="evenodd"
              clip-rule="evenodd"
              d="M56.7966 28.0958H46.3806C44.8806 28.0958 44.2176 27.2348 44.2176 26.0408C44.2176 25.1798 44.3706 24.6788 45.7779 23.5178L43.8066 20.4038C40.7529 22.5278 40.7739 24.2078 40.7739 26.0408C40.7739 29.0018 42.5619 31.9598 46.2936 31.9598H60.6639V21.4895L56.7966 22.4042V28.0958Z"
              fill="#5660F2"
            />
            <path
              fill-rule="evenodd"
              clip-rule="evenodd"
              d="M40.9977 3.51221L37.1304 4.42391V10.1182H25.6227V14.4622C25.6227 15.9622 24.7617 16.6252 23.5674 16.6252C22.7064 16.6252 22.2054 16.4719 21.0444 15.0652L17.9304 17.0359C20.0544 20.0902 21.7347 20.0689 23.5674 20.0689C26.5287 20.0689 29.4867 18.2809 29.4867 14.5489V13.9819H40.9977V3.51221Z"
              fill="#5660F2"
            />
            <path
              fill-rule="evenodd"
              clip-rule="evenodd"
              d="M54.3027 9.335C54.234 9.419 54.159 9.4913 54.0777 9.554C53.6187 9.9023 53.0937 10.121 50.2527 10.121C47.4117 10.121 47.2077 9.9023 46.7487 9.554C46.3767 9.269 46.0497 8.723 46.0497 8.024C46.0497 7.322 46.3767 6.7763 46.7487 6.494C47.2077 6.143 47.4117 5.924 50.2527 5.924C53.0937 5.924 53.6187 6.143 54.0777 6.494C54.1557 6.554 54.2307 6.6263 54.3027 6.707C54.5637 7.0133 54.7557 7.469 54.7557 8.024C54.7557 8.573 54.5667 9.029 54.3027 9.335ZM54.3027 2.4383C54.0237 2.354 53.7387 2.294 53.4477 2.246C52.4457 2.084 51.3657 2.099 50.2527 2.099C49.6677 2.099 49.1127 2.096 48.5817 2.1143C46.9857 2.174 45.6177 2.444 44.3877 3.674C43.2507 4.808 42.6387 6.122 42.6387 8.024C42.6387 9.9263 43.2507 11.2373 44.3877 12.374C46.0287 14.0123 47.9127 13.949 50.2527 13.949C51.6927 13.949 53.0727 13.973 54.3027 13.61V14.4623C54.3027 15.9623 53.4417 16.6253 52.2477 16.6253C51.3867 16.6253 49.2 16.9814 48.039 15.5747L44.925 17.5457C47.049 20.5997 50.4147 20.069 52.2477 20.069C55.209 20.069 58.1667 18.281 58.1667 14.549V8.024C58.1667 6.122 57.5547 4.808 56.4177 3.674C55.7877 3.044 55.0737 2.6633 54.3027 2.4383Z"
              fill="#5660F2"
            />
            <path
              fill-rule="evenodd"
              clip-rule="evenodd"
              d="M21.69 3.5105L17.823 4.4252V10.1168H5.6073C4.1073 10.1168 3.4443 9.2555 3.4443 8.0618C3.4443 7.2008 3.597 6.6998 5.004 5.5388L3.0333 2.4248C-0.0209961 4.5488 3.86394e-06 6.2288 3.86394e-06 8.0618C3.86394e-06 11.0225 1.788 13.9805 5.5203 13.9805H21.69V3.5105Z"
              fill="#5660F2"
            />
            <path
              fill-rule="evenodd"
              clip-rule="evenodd"
              d="M23.3728 8.30402H32.7094V4.74512H23.3728V8.30402Z"
              fill="#5660F2"
            />
            <path
              fill-rule="evenodd"
              clip-rule="evenodd"
              d="M33.9109 19.325H43.2478V15.7661H33.9109V19.325Z"
              fill="#5660F2"
            />
            <path
              fill-rule="evenodd"
              clip-rule="evenodd"
              d="M7.39526 8.30402H12.2328V4.74512H7.39526V8.30402Z"
              fill="#5660F2"
            />
            <path
              fill-rule="evenodd"
              clip-rule="evenodd"
              d="M23.3728 3.5589H28.2103V0H23.3728V3.5589Z"
              fill="#5660F2"
            />
            <path
              fill-rule="evenodd"
              clip-rule="evenodd"
              d="M48.0522 37.3045H52.89V33.7456H48.0522V37.3045Z"
              fill="#5660F2"
            />
            <path
              fill-rule="evenodd"
              clip-rule="evenodd"
              d="M69.55 37.3045H74.3878V33.7456H69.55V37.3045Z"
              fill="#5660F2"
            />
            <path
              fill-rule="evenodd"
              clip-rule="evenodd"
              d="M84.9176 27.6206C82.9112 23.2535 75.7265 18.3668 68.0498 22.5677L69.7391 26.0018C74.339 23.1293 78.9857 25.9253 80.6516 28.0958H69.1928H68.2985C66.7985 28.0958 66.1355 27.2348 66.1355 26.0438V17.9792L62.2712 19.1792V26.0438C62.2712 29.0018 64.4792 31.9598 68.2112 31.9598H69.1928H81.5432H84.8291C84.8291 31.9598 85.3058 31.2383 85.304 29.7542C85.3031 29.0558 85.2062 28.2488 84.9176 27.6206Z"
              fill="#5660F2"
            />
          </g>
        </g>
        <defs>
          <clipPath id="clip0_110_3">
            <rect width="86" height="38" fill="white" />
          </clipPath>
        </defs>
      </svg>