<svg xmlns="http://www.w3.org/2000/svg" width="78" height="16" viewBox="0 0 78 16" fill="none">
    <g clip-path="url(#clip0_19704_2999)">
    <path fill-rule="evenodd" clip-rule="evenodd" d="M56.4802 8.38137H48.7647C47.6536 8.38137 47.1624 7.74359 47.1624 6.85915C47.1624 6.22137 47.2758 5.85026 48.318 4.99026L46.858 2.68359C44.5958 4.25693 44.6113 5.50137 44.6113 6.85915C44.6113 9.05248 45.9358 11.2436 48.7002 11.2436H59.3447V3.48782L56.4802 4.16537V8.38137Z" fill="#5660F2"/>
    <path fill-rule="evenodd" clip-rule="evenodd" d="M30.7019 3.49219L27.8375 4.16752V8.38552H19.313V11.6033C19.313 12.7144 18.6752 13.2055 17.7908 13.2055C17.153 13.2055 16.7819 13.092 15.9219 12.05L13.6152 13.5097C15.1886 15.7722 16.433 15.7564 17.7908 15.7564C19.9841 15.7564 22.1752 14.432 22.1752 11.6675V11.2475H30.7019V3.49219Z" fill="#5660F2"/>
    <path fill-rule="evenodd" clip-rule="evenodd" d="M40.558 7.80558C40.5069 7.86781 40.4513 7.92136 40.3913 7.96781C40.0513 8.22581 39.6624 8.38781 37.558 8.38781C35.4535 8.38781 35.3024 8.22581 34.9624 7.96781C34.6869 7.7567 34.4446 7.35225 34.4446 6.83447C34.4446 6.31447 34.6869 5.91025 34.9624 5.70114C35.3024 5.44114 35.4535 5.27892 37.558 5.27892C39.6624 5.27892 40.0513 5.44114 40.3913 5.70114C40.4491 5.74558 40.5046 5.79914 40.558 5.85892C40.7513 6.08581 40.8935 6.42336 40.8935 6.83447C40.8935 7.24114 40.7535 7.57892 40.558 7.80558ZM40.558 2.69692C40.3513 2.63447 40.1402 2.59003 39.9246 2.55447C39.1824 2.43447 38.3824 2.44558 37.558 2.44558C37.1246 2.44558 36.7135 2.44336 36.3202 2.45692C35.138 2.50114 34.1246 2.70114 33.2135 3.61225C32.3713 4.45225 31.918 5.42558 31.918 6.83447C31.918 8.24358 32.3713 9.21469 33.2135 10.0567C34.4291 11.2703 35.8246 11.2234 37.558 11.2234C38.6246 11.2234 39.6469 11.2411 40.558 10.9722V11.6036C40.558 12.7147 39.9202 13.2058 39.0357 13.2058C38.398 13.2058 36.7782 13.4696 35.9182 12.4276L33.6115 13.8876C35.1849 16.1498 37.678 15.7567 39.0357 15.7567C41.2291 15.7567 43.4202 14.4323 43.4202 11.6678V6.83447C43.4202 5.42558 42.9669 4.45225 42.1246 3.61225C41.658 3.14558 41.1291 2.86358 40.558 2.69692Z" fill="#5660F2"/>
    <path fill-rule="evenodd" clip-rule="evenodd" d="M16.4007 3.48782L13.5362 4.16537V8.38137H4.48732C3.37621 8.38137 2.8851 7.74337 2.8851 6.85915C2.8851 6.22137 2.99843 5.85026 4.04065 4.99026L2.58065 2.68359C0.31843 4.25693 0.333986 5.50137 0.333986 6.85915C0.333986 9.05226 1.65843 11.2434 4.42287 11.2434H16.4007V3.48782Z" fill="#5660F2"/>
    <path fill-rule="evenodd" clip-rule="evenodd" d="M50.002 15.2026H53.5855V12.5664H50.002V15.2026Z" fill="#5660F2"/>
    <path fill-rule="evenodd" clip-rule="evenodd" d="M17.6465 7.03857H24.5627V4.40234H17.6465V7.03857Z" fill="#5660F2"/>
    <path fill-rule="evenodd" clip-rule="evenodd" d="M25.4531 15.2026H32.3693V12.5664H25.4531V15.2026Z" fill="#5660F2"/>
    <path fill-rule="evenodd" clip-rule="evenodd" d="M5.8125 7.03857H9.39606V4.40234H5.8125V7.03857Z" fill="#5660F2"/>
    <path fill-rule="evenodd" clip-rule="evenodd" d="M17.6465 3.52685H21.23V0.890625H17.6465V3.52685Z" fill="#5660F2"/>
    <path fill-rule="evenodd" clip-rule="evenodd" d="M65.9258 15.2026H69.5093V12.5664H65.9258V15.2026Z" fill="#5660F2"/>
    <path fill-rule="evenodd" clip-rule="evenodd" d="M77.3103 8.0324C75.824 4.79751 70.502 1.17774 64.8156 4.28951L66.0669 6.83329C69.4743 4.70551 72.916 6.77662 74.1503 8.3844H65.662H64.9996C63.8885 8.3844 63.3974 7.74662 63.3974 6.8644V0.890625L60.5352 1.77951V6.8644C60.5352 9.05551 62.1707 11.2466 64.9352 11.2466H65.662H74.8105H77.2447C77.2447 11.2466 77.5978 10.7122 77.5965 9.61285C77.5958 9.09551 77.524 8.49774 77.3103 8.0324Z" fill="#5660F2"/>
    </g>
    <defs>
    <clipPath id="clip0_19704_2999">
    <rect width="77.3333" height="16" fill="white" transform="translate(0.333984)"/>
    </clipPath>
    </defs>
    </svg>