<svg xmlns="http://www.w3.org/2000/svg" width="52" height="24" viewBox="0 0 52 24" fill="none">
<g clip-path="url(#clip0)">
<path fill-rule="evenodd" clip-rule="evenodd" d="M34.078 16.9651H27.8284C26.9284 16.9651 26.5306 16.4485 26.5306 15.7321C26.5306 15.2155 26.6224 14.9149 27.4668 14.2183L26.284 12.3499C24.4518 13.6243 24.4644 14.6323 24.4644 15.7321C24.4644 17.5087 25.5372 19.2835 27.7762 19.2835H36.3984V13.0013L34.078 13.5501V16.9651Z" fill="white"/>
<path fill-rule="evenodd" clip-rule="evenodd" d="M24.5987 2.2146L22.2783 2.76162V6.1782H15.3737V8.7846C15.3737 9.6846 14.8571 10.0824 14.1405 10.0824C13.6239 10.0824 13.3233 9.99042 12.6267 9.1464L10.7583 10.3288C12.0327 12.1614 13.0409 12.1486 14.1405 12.1486C15.9173 12.1486 17.6921 11.0758 17.6921 8.83662V8.49642H24.5987V2.2146Z" fill="white"/>
<path fill-rule="evenodd" clip-rule="evenodd" d="M32.5814 5.70827C32.5402 5.75867 32.4952 5.80205 32.4464 5.83967C32.171 6.04865 31.856 6.17987 30.1514 6.17987C28.4468 6.17987 28.3244 6.04865 28.049 5.83967C27.8258 5.66867 27.6296 5.34107 27.6296 4.92167C27.6296 4.50047 27.8258 4.17305 28.049 4.00367C28.3244 3.79307 28.4468 3.66167 30.1514 3.66167C31.856 3.66167 32.171 3.79307 32.4464 4.00367C32.4932 4.03967 32.5382 4.08305 32.5814 4.13147C32.738 4.31525 32.8532 4.58867 32.8532 4.92167C32.8532 5.25107 32.7398 5.52467 32.5814 5.70827ZM32.5814 1.57025C32.414 1.51967 32.243 1.48367 32.0684 1.45487C31.4672 1.35767 30.8192 1.36667 30.1514 1.36667C29.8004 1.36667 29.4674 1.36487 29.1488 1.37585C28.1912 1.41167 27.3704 1.57367 26.6324 2.31167C25.9502 2.99207 25.583 3.78047 25.583 4.92167C25.583 6.06305 25.9502 6.84965 26.6324 7.53167C27.617 8.51465 28.7474 8.47668 30.1514 8.47668C31.0154 8.47668 31.8434 8.49108 32.5814 8.27327V8.78465C32.5814 9.68465 32.0648 10.0825 31.3484 10.0825C30.8318 10.0825 29.5198 10.2961 28.8232 9.4521L26.9548 10.6347C28.2292 12.4671 30.2486 12.1487 31.3484 12.1487C33.1252 12.1487 34.8998 11.0759 34.8998 8.83667V4.92167C34.8998 3.78047 34.5326 2.99207 33.8504 2.31167C33.4724 1.93367 33.044 1.70525 32.5814 1.57025Z" fill="white"/>
<path fill-rule="evenodd" clip-rule="evenodd" d="M13.014 2.21368L10.6938 2.7625V6.17746H3.36438C2.46438 6.17746 2.06658 5.66068 2.06658 4.94446C2.06658 4.42786 2.1582 4.12726 3.0024 3.43066L1.81998 1.56226C-0.0125988 2.83666 1.17106e-06 3.84466 1.17106e-06 4.94446C1.17106e-06 6.72088 1.0728 8.49568 3.31218 8.49568H13.014V2.21368Z" fill="white"/>
<path fill-rule="evenodd" clip-rule="evenodd" d="M14.0239 5.08993H19.6259V2.95459H14.0239V5.08993Z" fill="white"/>
<path fill-rule="evenodd" clip-rule="evenodd" d="M20.3467 11.7025H25.9488V9.56714H20.3467V11.7025Z" fill="white"/>
<path fill-rule="evenodd" clip-rule="evenodd" d="M4.43701 5.08993H7.33951V2.95459H4.43701V5.08993Z" fill="white"/>
<path fill-rule="evenodd" clip-rule="evenodd" d="M14.0239 2.24276H16.9264V0.107422H14.0239V2.24276Z" fill="white"/>
<path fill-rule="evenodd" clip-rule="evenodd" d="M28.8315 22.4901H31.7342V20.3547H28.8315V22.4901Z" fill="white"/>
<path fill-rule="evenodd" clip-rule="evenodd" d="M41.73 22.4901H44.6327V20.3547H41.73V22.4901Z" fill="white"/>
<path fill-rule="evenodd" clip-rule="evenodd" d="M50.9506 16.6799C49.7468 14.0596 45.436 11.1276 40.83 13.6481L41.8435 15.7086C44.6035 13.9851 47.3915 15.6627 48.391 16.965H41.5158H40.9792C40.0792 16.965 39.6814 16.4484 39.6814 15.7338V10.895L37.3628 11.615V15.7338C37.3628 17.5086 38.6876 19.2834 40.9268 19.2834H41.5158H48.926H50.8975C50.8975 19.2834 51.1836 18.8505 51.1825 17.96C51.1819 17.541 51.1238 17.0568 50.9506 16.6799Z" fill="white"/>
<path d="M48.3162 12.3074V11.1871H47.8717V11.0541H48.9386V11.1871H48.4941V12.3074H48.3162ZM49.1156 12.3074V11.0541H49.362L49.7092 12.0237L50.0665 11.0541H50.2867V12.3074H50.1207V11.2879L49.7752 12.2235H49.6033L49.268 11.2853V12.3074H49.1156Z" fill="white"/>
</g>
<defs>
<clipPath id="clip0">
<rect width="52" height="23" fill="white" transform="translate(0 0.107422)"/>
</clipPath>
</defs>
</svg>